# File created by Blade
# Date/Time:  Wed Sep 24 20:15:16 2014
# Frame Rate: 120.000 fps
#------------------------------------------------------
:FULLY-SPECIFIED
:DEGREES
1762
root -6.288796 32.756280 -5.621887 15.961701 6.403752 -1.827901
Spine -19.616962 7.931438 -1.579896
Head -9.433953 -16.827543 12.050516
LeftShoulder -4.454770 17.124816 9.841059
LeftArm 25.371997 36.037627 -70.688996
LeftForeArm -0.580545 0.000000 20.968176
LeftHand -22.214251 0.000000 -5.633214
LeftHandThumb1 -26.253704 0.000000 33.147579
RightShoulder -13.976111 15.235011 -12.849147
RightArm -12.404616 2.060718 88.244378
RightForeArm 43.817559 -0.000000 98.637742
RightHand 7.880278 -0.000000 -5.442261
RightHandThumb1 -24.326973 -0.000000 -32.862282
LeftUpLeg -14.932034 4.737246 5.018455
LeftLeg 1.252813 -0.000000 -0.000000
LeftFoot -10.960775 5.938296 -18.410405
LeftToeBase 9.747356 -0.000000 -0.000000
RightUpLeg -14.569981 -7.863714 -0.087651
RightLeg 4.353124 -0.000000 -0.000000
RightFoot -8.886702 -4.779311 -13.128323
RightToeBase 0.624009 -0.000000 -0.000000
1763
root -6.293672 32.755570 -5.614303 15.932169 6.420492 -1.852169
Spine -19.589238 7.953973 -1.569050
Head -9.534954 -16.768793 12.002833
LeftShoulder -4.498676 17.149791 9.857216
LeftArm 25.402149 36.056293 -70.684810
LeftForeArm -0.592376 0.000000 20.984855
LeftHand -22.206807 -0.000000 -5.657701
LeftHandThumb1 -26.253704 0.000000 33.147579
RightShoulder -14.013352 15.126355 -12.723876
RightArm -12.523873 2.094972 88.222294
RightForeArm 43.915314 0.000000 98.576151
RightHand 7.875250 0.000000 -5.142425
RightHandThumb1 -24.326973 -0.000000 -32.862282
LeftUpLeg -14.900302 4.749147 5.052336
LeftLeg 1.263726 -0.000000 -0.000000
LeftFoot -10.972924 5.924651 -18.363628
LeftToeBase 9.655654 -0.000000 -0.000000
RightUpLeg -14.563879 -7.899691 -0.045674
RightLeg 4.426571 -0.000000 -0.000000
RightFoot -8.895412 -4.800002 -13.219866
RightToeBase 0.479505 -0.000000 -0.000000
1764
root -6.297312 32.755151 -5.607826 15.907051 6.431765 -1.866430
Spine -19.560143 7.968498 -1.563533
Head -9.637887 -16.694191 11.956623
LeftShoulder -4.521578 17.169869 9.889000
LeftArm 25.394191 36.046474 -70.728047
LeftForeArm -0.588617 0.000000 21.000719
LeftHand -22.189143 -0.000000 -5.591609
LeftHandThumb1 -26.253704 0.000000 33.147579
RightShoulder -14.059610 15.031433 -12.611085
RightArm -12.599062 2.025446 88.167159
RightForeArm 43.920536 -0.000000 98.541113
RightHand 7.928127 0.000000 -5.024161
RightHandThumb1 -24.326973 -0.000000 -32.862282
LeftUpLeg -14.873452 4.757700 5.070812
LeftLeg 1.276229 -0.000000 -0.000000
LeftFoot -11.009151 5.920610 -18.222143
LeftToeBase 9.792033 -0.000000 -0.000000
RightUpLeg -14.544636 -7.906173 -0.023745
RightLeg 4.460791 -0.000000 -0.000000
RightFoot -8.920580 -4.813813 -13.233255
RightToeBase 0.498968 -0.000000 -0.000000
1765
root -6.300844 32.754856 -5.601269 15.879807 6.433491 -1.882897
Spine -19.525471 7.982712 -1.541490
Head -9.747061 -16.558310 11.872274
LeftShoulder -4.547481 17.196876 9.905899
LeftArm 25.374655 36.017894 -70.772432
LeftForeArm -0.589612 -0.000000 21.026047
LeftHand -22.204452 -0.000000 -5.618419
LeftHandThumb1 -26.253704 0.000000 33.147579
RightShoulder -14.101488 14.951407 -12.563130
RightArm -12.655257 1.933281 88.169539
RightForeArm 43.994858 -0.000000 98.489045
RightHand 8.052333 0.000000 -4.854797
RightHandThumb1 -24.326973 -0.000000 -32.862282
LeftUpLeg -14.841909 4.800858 5.083029
LeftLeg 1.282603 -0.000000 -0.000000
LeftFoot -11.024743 5.898174 -18.193775
LeftToeBase 9.812980 -0.000000 -0.000000
RightUpLeg -14.517490 -7.880812 -0.010436
RightLeg 4.483794 -0.000000 -0.000000
RightFoot -8.920359 -4.841557 -13.265128
RightToeBase 0.500325 -0.000000 -0.000000
1766
root -6.305369 32.755634 -5.594284 15.858932 6.444526 -1.906510
Spine -19.507328 7.964111 -1.505629
Head -9.790574 -16.414663 11.834788
LeftShoulder -4.574704 17.228851 9.931064
LeftArm 25.327780 35.986349 -70.841331
LeftForeArm -0.559169 -0.000000 21.048130
LeftHand -22.211140 -0.000000 -5.647358
LeftHandThumb1 -26.253704 0.000000 33.147579
RightShoulder -14.130176 14.885573 -12.525031
RightArm -12.694406 1.840894 88.176899
RightForeArm 43.984402 -0.000000 98.461083
RightHand 8.104873 -0.000000 -4.613285
RightHandThumb1 -24.326973 -0.000000 -32.862282
LeftUpLeg -14.824456 4.853048 5.103548
LeftLeg 1.303916 -0.000000 -0.000000
LeftFoot -11.022063 5.856510 -18.151865
LeftToeBase 9.770925 -0.000000 -0.000000
RightUpLeg -14.487885 -7.886925 0.020287
RightLeg 4.484116 -0.000000 -0.000000
RightFoot -8.940124 -4.812065 -13.177634
RightToeBase 0.533696 -0.000000 -0.000000
